<svg xmlns="http://www.w3.org/2000/svg" xmlns:xlink="http://www.w3.org/1999/xlink" width="1080" zoomAndPan="magnify" viewBox="0 0 810 809.999993" height="1080" preserveAspectRatio="xMidYMid meet" version="1.0"><defs><clipPath id="2a85c436e7"><path d="M 0 106 L 802.5 106 L 802.5 697 L 0 697 Z M 0 106 " clip-rule="nonzero"/></clipPath></defs><rect x="-81" width="972" fill="#ffffff" y="-80.999999" height="971.999992" fill-opacity="1"/><rect x="-81" width="972" fill="#ffffff" y="-80.999999" height="971.999992" fill-opacity="1"/><g clip-path="url(#2a85c436e7)"><path fill="#c89dd8" d="M 752.894531 696.285156 C 736.242188 696.285156 722.703125 682.738281 722.703125 666.09375 L 722.703125 128.960938 C 722.703125 121.113281 729.011719 106.269531 752.894531 106.269531 C 790.785156 106.269531 802.558594 240.8125 802.558594 289.820312 C 802.558594 365.847656 785.742188 435.652344 783.085938 446.203125 L 783.085938 666.089844 C 783.085938 682.738281 769.542969 696.285156 752.894531 696.285156 Z M 742.804688 454.996094 L 742.804688 666.09375 C 742.804688 671.652344 747.328125 676.183594 752.894531 676.183594 C 758.457031 676.183594 762.980469 671.660156 762.980469 666.09375 L 762.980469 454.996094 Z M 742.804688 434.890625 L 765.113281 434.890625 C 769.886719 414.148438 782.453125 353.445312 782.453125 289.824219 C 782.453125 205.886719 762.730469 133.585938 752.113281 126.386719 C 745.914062 126.519531 743.195312 128.238281 742.808594 129.484375 L 742.808594 434.890625 Z M 66.875 696.285156 C 59.355469 696.285156 52.117188 693.335938 47.019531 688.1875 C 42.335938 683.457031 39.785156 677.289062 39.851562 670.824219 L 43.089844 341.988281 C 18.425781 332.46875 0.570312 308.667969 0.00390625 280.859375 C -0.00390625 280.609375 0 280.355469 0.0117188 280.101562 L 6.90625 128.503906 C 7.160156 122.964844 11.96875 118.769531 17.402344 118.917969 C 22.949219 119.171875 27.242188 123.871094 26.988281 129.417969 L 20.570312 270.503906 L 38.105469 270.503906 L 41.328125 128.734375 C 41.453125 123.179688 46.1875 118.761719 51.605469 118.910156 C 57.160156 119.039062 61.554688 123.640625 61.425781 129.1875 L 58.222656 270.507812 L 75.535156 270.507812 L 72.320312 129.191406 C 72.195312 123.644531 76.589844 119.042969 82.140625 118.914062 C 87.601562 118.746094 92.292969 123.183594 92.417969 128.738281 L 95.640625 270.507812 L 113.175781 270.507812 L 106.761719 129.421875 C 106.511719 123.875 110.800781 119.175781 116.347656 118.921875 C 121.84375 118.714844 126.597656 122.964844 126.84375 128.507812 L 133.734375 280.101562 C 133.746094 280.355469 133.75 280.609375 133.742188 280.859375 C 133.175781 308.664062 115.320312 332.46875 90.65625 341.988281 L 93.902344 670.824219 C 93.964844 677.289062 91.417969 683.457031 86.730469 688.1875 C 81.628906 693.335938 74.390625 696.285156 66.875 696.285156 Z M 63.148438 346.414062 L 59.953125 671.019531 C 59.941406 672.375 60.679688 673.410156 61.304688 674.039062 C 64 676.761719 69.746094 676.757812 72.445312 674.039062 C 73.070312 673.40625 73.808594 672.371094 73.796875 671.019531 L 70.597656 346.414062 Z M 21.441406 290.613281 C 26.492188 311.03125 45.078125 326.308594 66.875 326.308594 C 88.675781 326.308594 107.257812 311.03125 112.304688 290.613281 L 85.820312 290.613281 C 85.820312 290.613281 85.808594 290.613281 85.800781 290.613281 L 47.949219 290.613281 C 47.945312 290.613281 47.945312 290.613281 47.941406 290.613281 C 47.941406 290.613281 47.9375 290.613281 47.933594 290.613281 Z M 413.257812 656.421875 C 265.730469 656.421875 145.699219 536.394531 145.699219 388.863281 C 145.699219 241.335938 265.730469 121.308594 413.257812 121.308594 C 560.792969 121.308594 680.820312 241.335938 680.820312 388.863281 C 680.820312 536.394531 560.796875 656.421875 413.257812 656.421875 Z M 413.257812 141.40625 C 276.808594 141.40625 165.804688 252.417969 165.804688 388.859375 C 165.804688 525.304688 276.808594 636.316406 413.257812 636.316406 C 549.707031 636.316406 660.71875 525.304688 660.71875 388.859375 C 660.71875 252.417969 549.707031 141.40625 413.257812 141.40625 Z M 413.257812 583.636719 C 305.859375 583.636719 218.488281 496.261719 218.488281 388.863281 C 218.488281 281.46875 305.859375 194.09375 413.257812 194.09375 C 520.65625 194.09375 608.03125 281.46875 608.03125 388.863281 C 608.03125 496.261719 520.65625 583.636719 413.257812 583.636719 Z M 413.257812 214.195312 C 316.945312 214.195312 238.59375 292.550781 238.59375 388.859375 C 238.59375 485.171875 316.945312 563.527344 413.257812 563.527344 C 509.574219 563.527344 587.925781 485.171875 587.925781 388.859375 C 587.925781 292.550781 509.574219 214.195312 413.257812 214.195312 Z M 413.257812 214.195312 " fill-opacity="1" fill-rule="nonzero"/></g></svg>