<svg xmlns="http://www.w3.org/2000/svg" xmlns:xlink="http://www.w3.org/1999/xlink" width="1080" zoomAndPan="magnify" viewBox="0 0 810 809.999993" height="1080" preserveAspectRatio="xMidYMid meet" version="1.0"><defs><clipPath id="2fe3efb010"><path d="M 46.371094 345.613281 L 88.488281 345.613281 L 88.488281 586.761719 L 46.371094 586.761719 Z M 46.371094 345.613281 " clip-rule="nonzero"/></clipPath><clipPath id="08be06b260"><path d="M 70.648438 348.675781 C 76.5 356.023438 78.75 358.875 79.875 361.875 C 81.074219 365.023438 81.148438 368.324219 81.523438 372.300781 C 81.976562 377.476562 81.449219 385.273438 81.824219 390.375 C 82.050781 394.199219 82.351562 397.5 83.023438 400.351562 C 83.476562 402.523438 84.75 404.175781 84.824219 405.898438 C 84.824219 407.398438 84.449219 408.898438 83.773438 410.175781 C 83.175781 411.449219 82.199219 412.726562 80.925781 413.476562 C 79.351562 414.523438 76.5 415.199219 74.625 415.125 C 73.050781 415.050781 71.699219 414.523438 70.5 413.625 C 69 412.5 66.523438 408.523438 66.75 408.300781 C 67.050781 408 75.523438 414.75 75.226562 415.351562 C 74.851562 415.875 66.976562 413.101562 63.523438 411 C 60.074219 408.976562 56.699219 405.976562 54.601562 402.898438 C 52.726562 400.199219 51.75 397.125 51 393.976562 C 50.324219 390.898438 49.5 387.523438 50.324219 384.300781 C 51.300781 380.625 54.75 376.351562 57.300781 373.425781 C 59.324219 371.101562 61.273438 369.226562 63.898438 367.949219 C 66.824219 366.523438 71.101562 364.800781 74.25 365.699219 C 77.925781 366.824219 81.976562 371.101562 84.300781 375.675781 C 87.449219 382.050781 87.226562 393.976562 87.824219 402.148438 C 88.273438 409.273438 88.800781 416.773438 88.050781 422.023438 C 87.523438 425.550781 86.476562 427.726562 85.273438 430.726562 C 84 433.949219 82.273438 438.449219 80.398438 440.476562 C 79.199219 441.824219 78.074219 442.5 76.574219 442.875 C 74.699219 443.398438 71.773438 443.398438 69.824219 442.574219 C 67.949219 441.75 65.925781 439.800781 65.023438 437.925781 C 64.199219 436.050781 65.175781 433.648438 64.574219 431.25 C 63.675781 428.023438 60.300781 424.425781 59.398438 420.675781 C 58.5 416.851562 58.273438 411.523438 59.25 408.375 C 59.925781 405.976562 61.273438 403.949219 63 402.75 C 64.726562 401.550781 67.425781 400.875 69.523438 401.101562 C 71.625 401.324219 74.175781 402.824219 75.523438 404.175781 C 76.648438 405.300781 77.25 406.351562 77.699219 408.148438 C 78.523438 411.449219 78.148438 417 77.925781 422.550781 C 77.550781 430.199219 75.675781 441.523438 75.226562 449.925781 C 74.851562 457.050781 74.324219 464.101562 74.925781 469.726562 C 75.449219 473.925781 77.175781 477.074219 77.625 480.675781 C 78.074219 484.050781 78.226562 486.976562 77.925781 490.648438 C 77.625 495.226562 76.800781 501.601562 75.300781 505.875 C 74.175781 509.175781 71.550781 511.199219 70.726562 514.199219 C 69.976562 517.125 70.949219 520.5 70.425781 523.574219 C 69.898438 526.648438 68.324219 529.648438 67.726562 532.726562 C 67.050781 535.875 66.75 538.050781 66.449219 542.324219 C 65.851562 550.800781 68.175781 573.523438 66 580.050781 C 65.101562 582.675781 63.523438 583.949219 62.25 585 C 61.351562 585.75 60.523438 586.050781 59.398438 586.273438 C 57.75 586.574219 55.050781 586.648438 53.25 585.976562 C 51.449219 585.226562 49.574219 583.648438 48.523438 581.925781 C 47.550781 580.273438 47.175781 577.574219 47.175781 575.925781 C 47.25 574.726562 47.625 573.824219 48.074219 572.925781 C 48.449219 571.949219 48.898438 571.125 49.800781 570.300781 C 51.074219 569.25 53.625 567.824219 55.273438 567.449219 C 56.398438 567.148438 57.226562 567.148438 58.351562 567.449219 C 60 567.824219 62.476562 568.949219 63.824219 570.300781 C 65.175781 571.726562 66.074219 574.273438 66.449219 575.925781 C 66.675781 577.125 66.601562 577.949219 66.226562 579.074219 C 65.773438 580.648438 64.574219 583.050781 63.074219 584.324219 C 61.574219 585.601562 58.949219 586.425781 57.300781 586.648438 C 56.175781 586.800781 55.351562 586.726562 54.226562 586.273438 C 52.648438 585.75 50.324219 584.398438 49.125 582.824219 C 47.925781 581.25 47.625 579.898438 47.175781 576.976562 C 45.976562 569.550781 46.351562 544.949219 47.625 535.800781 C 48.300781 531.148438 49.875 528.976562 50.550781 525.375 C 51.300781 521.625 51 517.574219 52.050781 513.601562 C 53.101562 509.398438 55.726562 505.726562 57 501 C 58.574219 495.449219 60.449219 487.574219 59.925781 482.324219 C 59.476562 478.273438 56.851562 475.949219 56.175781 471.898438 C 55.199219 466.648438 55.800781 458.175781 56.324219 453 C 56.625 449.324219 57.449219 447.824219 57.898438 443.773438 C 58.726562 435.75 57.675781 414.226562 59.25 408.375 C 59.773438 406.273438 60.148438 405.449219 61.273438 404.324219 C 62.625 402.898438 65.324219 401.476562 67.199219 401.101562 C 68.773438 400.800781 70.351562 401.101562 71.773438 401.625 C 73.125 402.148438 74.550781 403.050781 75.523438 404.175781 C 76.5 405.226562 77.101562 406.273438 77.699219 408.148438 C 78.824219 411.976562 78.523438 421.125 79.574219 426.300781 C 80.324219 430.273438 83.175781 433.800781 82.648438 436.574219 C 82.273438 438.75 80.398438 440.851562 78.601562 441.898438 C 76.875 443.023438 74.101562 443.550781 72.074219 443.25 C 69.976562 442.875 67.574219 441.300781 66.226562 439.875 C 65.175781 438.675781 64.648438 437.175781 64.351562 435.75 C 64.050781 434.324219 64.125 432.976562 64.574219 431.25 C 65.25 428.550781 68.476562 425.398438 69.300781 421.425781 C 70.5 415.800781 69.375 407.25 68.851562 400.425781 C 68.25 393.898438 63.898438 384 66.074219 381.375 C 67.574219 379.648438 74.398438 380.25 74.925781 381.300781 C 75.375 382.425781 68.699219 385.574219 68.324219 388.199219 C 67.949219 390.898438 70.425781 394.800781 72.824219 397.273438 C 75.601562 400.125 83.175781 401.851562 84.523438 403.726562 C 85.050781 404.476562 84.824219 405.074219 84.824219 405.898438 C 84.75 407.101562 84.449219 408.898438 83.773438 410.175781 C 83.175781 411.449219 82.199219 412.726562 80.925781 413.476562 C 79.351562 414.523438 76.648438 415.351562 74.625 415.125 C 72.601562 414.898438 70.125 413.476562 68.851562 412.199219 C 67.726562 411.074219 67.273438 409.726562 66.75 408.300781 C 66.148438 406.800781 65.925781 405.300781 65.476562 403.351562 C 64.875 400.5 64.125 396.976562 63.824219 393 C 63.449219 387.375 64.726562 378.148438 64.050781 372.898438 C 63.601562 369.449219 63 367.050781 61.726562 364.574219 C 60.523438 362.023438 57.449219 359.851562 56.476562 357.824219 C 55.800781 356.398438 55.574219 355.125 55.648438 353.851562 C 55.648438 352.5 55.949219 351.074219 56.699219 349.949219 C 57.675781 348.449219 59.550781 346.648438 61.351562 346.050781 C 63.074219 345.449219 65.699219 345.675781 67.351562 346.273438 C 68.699219 346.726562 70.648438 348.675781 70.648438 348.675781 " clip-rule="nonzero"/></clipPath><clipPath id="66ded45a83"><path d="M 48.527344 507.324219 L 86.65625 507.324219 L 86.65625 686.898438 L 48.527344 686.898438 Z M 48.527344 507.324219 " clip-rule="nonzero"/></clipPath><clipPath id="b8e8e04c19"><path d="M 81 517.425781 C 75.976562 542.25 73.726562 545.023438 72.75 548.398438 C 71.773438 551.625 71.398438 553.875 71.023438 557.925781 C 70.5 564.824219 70.726562 577.574219 71.625 586.125 C 72.300781 593.25 73.574219 600.523438 75.226562 605.699219 C 76.425781 609.226562 78.449219 611.398438 79.351562 614.324219 C 80.25 617.175781 80.398438 620.023438 80.625 622.875 C 80.851562 625.648438 80.476562 628.5 80.773438 631.273438 C 81 634.199219 82.199219 636.824219 82.125 639.976562 C 82.050781 643.800781 81.300781 647.925781 79.726562 652.5 C 77.550781 658.949219 72.226562 673.949219 68.851562 674.398438 C 66.898438 674.699219 64.425781 670.726562 63.226562 668.175781 C 61.949219 665.476562 62.175781 663.226562 61.800781 658.425781 C 60.824219 645.375 61.199219 599.476562 61.800781 584.699219 C 62.101562 578.398438 62.25 575.398438 63 571.125 C 63.675781 567.148438 65.25 563.324219 65.773438 559.800781 C 66.300781 556.800781 65.851562 553.875 66.375 551.25 C 66.824219 548.773438 67.351562 546.148438 68.625 544.273438 C 69.824219 542.398438 72 540.675781 73.800781 539.925781 C 75.300781 539.25 76.800781 539.175781 78.375 539.476562 C 80.25 539.851562 82.949219 541.199219 84.300781 542.773438 C 85.648438 544.425781 86.476562 547.273438 86.476562 549.226562 C 86.550781 550.800781 85.648438 551.476562 85.273438 553.648438 C 84.300781 558.75 83.851562 573.226562 82.648438 580.574219 C 81.824219 585.675781 80.851562 589.574219 79.726562 593.550781 C 78.75 597 77.550781 599.324219 76.574219 603.074219 C 75.226562 608.175781 74.398438 616.949219 72.898438 621.675781 C 71.851562 624.824219 70.199219 626.550781 69.375 629.25 C 68.476562 632.023438 67.949219 634.5 67.648438 638.023438 C 67.125 643.050781 66.449219 651.75 67.648438 656.625 C 68.398438 659.925781 71.023438 662.550781 71.625 664.648438 C 72 665.851562 72.148438 666.523438 72 667.648438 C 71.851562 669.300781 71.101562 671.773438 69.898438 673.273438 C 68.699219 674.699219 66.375 675.976562 64.800781 676.425781 C 63.75 676.800781 62.925781 676.875 61.800781 676.648438 C 60.226562 676.351562 57.601562 675.226562 56.324219 674.25 C 55.351562 673.5 54.898438 672.898438 54.449219 671.851562 C 53.773438 670.351562 53.101562 667.800781 53.324219 665.925781 C 53.625 664.050781 54.75 661.875 56.101562 660.601562 C 57.449219 659.25 59.925781 658.273438 61.5 657.976562 C 62.625 657.75 63.449219 657.75 64.5 658.125 C 66.074219 658.574219 68.476562 659.699219 69.675781 661.125 C 70.949219 662.550781 71.773438 665.023438 72 666.675781 C 72.226562 667.800781 72 668.699219 71.699219 669.675781 C 71.476562 670.648438 71.175781 671.550781 70.5 672.449219 C 69.523438 673.726562 67.574219 675.523438 65.773438 676.125 C 63.976562 676.800781 61.351562 676.648438 59.773438 676.273438 C 58.648438 675.976562 57.898438 675.449219 57.074219 674.851562 C 56.25 674.25 55.726562 673.800781 54.976562 672.675781 C 53.324219 670.351562 49.949219 664.574219 49.050781 660.75 C 48.226562 657.523438 48.898438 655.199219 48.976562 651.601562 C 49.050781 646.425781 48.898438 637.726562 49.574219 632.699219 C 50.101562 629.25 50.773438 627.226562 51.75 624.074219 C 52.949219 620.023438 55.648438 614.476562 56.699219 610.425781 C 57.449219 607.351562 57.148438 605.324219 57.898438 601.949219 C 59.023438 597 62.175781 589.125 63.523438 583.574219 C 64.574219 579.148438 64.949219 576.300781 65.699219 571.425781 C 66.75 564.148438 65.925781 549.226562 68.625 544.273438 C 69.898438 541.800781 71.773438 540.601562 73.800781 539.925781 C 75.824219 539.175781 78.75 539.476562 80.625 540.074219 C 82.125 540.601562 83.324219 541.5 84.300781 542.773438 C 85.425781 544.351562 86.324219 546.300781 86.476562 549.226562 C 86.925781 555 82.273438 569.398438 81.449219 575.925781 C 81 579.601562 81.074219 580.273438 80.925781 584.699219 C 80.550781 598.351562 82.574219 654.148438 80.773438 668.175781 C 80.175781 673.050781 79.800781 675.148438 78.300781 677.773438 C 76.875 680.25 74.625 682.273438 72.148438 683.773438 C 69.449219 685.351562 65.476562 687.074219 62.324219 686.851562 C 59.324219 686.699219 55.648438 685.425781 53.773438 683.101562 C 51.601562 680.324219 51.074219 674.101562 51.226562 670.273438 C 51.300781 667.050781 52.125 664.875 53.476562 661.574219 C 55.5 656.773438 62.398438 649.949219 63.449219 644.773438 C 64.273438 640.949219 62.324219 637.5 62.101562 633.976562 C 61.875 630.601562 62.25 627.226562 61.949219 624 C 61.648438 620.925781 61.351562 618.148438 60.449219 615.226562 C 59.398438 611.925781 56.851562 609.449219 55.800781 605.324219 C 54.148438 599.25 54 589.800781 53.773438 581.699219 C 53.550781 573 53.699219 561.148438 54.449219 554.699219 C 54.898438 551.101562 55.199219 549.074219 56.25 546.148438 C 57.375 542.851562 60 540.074219 61.273438 535.949219 C 63.148438 530.101562 63.449219 518.324219 64.726562 514.199219 C 65.25 512.398438 65.476562 511.574219 66.375 510.601562 C 67.5 509.324219 69.824219 507.976562 71.476562 507.601562 C 72.824219 507.300781 74.175781 507.375 75.449219 507.898438 C 77.023438 508.5 79.125 510 80.023438 511.574219 C 80.925781 513.226562 81 517.425781 81 517.425781 " clip-rule="nonzero"/></clipPath><clipPath id="a47f66a25f"><path d="M 743 453.824219 L 777.277344 453.824219 L 777.277344 512.832031 L 743 512.832031 Z M 743 453.824219 " clip-rule="nonzero"/></clipPath><clipPath id="1adff7fb0e"><path d="M 777.226562 467.699219 C 776.550781 498.601562 775.351562 505.273438 771.898438 508.574219 C 768.75 511.574219 762.375 512.324219 758.773438 512.625 C 756.226562 512.851562 754.050781 512.398438 752.25 511.726562 C 750.675781 511.199219 749.398438 510.300781 748.199219 509.324219 C 747.074219 508.351562 745.949219 507.074219 745.199219 505.800781 C 744.375 504.449219 743.773438 502.949219 743.476562 501.449219 C 743.101562 499.949219 743.023438 498.300781 743.175781 496.800781 C 743.398438 495.226562 743.773438 493.648438 744.449219 492.226562 C 745.125 490.875 746.023438 489.523438 747.074219 488.398438 C 748.125 487.273438 749.398438 486.300781 750.75 485.550781 C 752.101562 484.875 753.675781 484.351562 755.175781 484.050781 C 756.75 483.824219 758.324219 483.824219 759.898438 484.050781 C 761.398438 484.273438 762.976562 484.800781 764.324219 485.550781 C 765.675781 486.300781 766.949219 487.273438 768 488.398438 C 769.050781 489.523438 770.023438 490.875 770.625 492.226562 C 771.300781 493.648438 771.75 495.226562 771.898438 496.726562 C 772.050781 498.300781 771.976562 499.875 771.675781 501.375 C 771.300781 502.875 770.699219 504.449219 769.949219 505.726562 C 769.125 507.074219 768.074219 508.273438 766.875 509.324219 C 765.75 510.300781 764.324219 511.125 762.898438 511.726562 C 761.476562 512.25 759.898438 512.625 758.324219 512.699219 C 756.824219 512.773438 755.175781 512.625 753.675781 512.25 C 752.25 511.800781 750.75 511.125 749.476562 510.300781 C 748.199219 509.398438 747 508.273438 746.101562 507.074219 C 745.125 505.800781 744.375 504.375 743.851562 502.949219 C 743.398438 501.449219 743.101562 499.875 743.101562 498.300781 C 743.101562 496.800781 743.398438 495.148438 743.851562 493.726562 C 744.375 492.226562 745.125 490.800781 746.023438 489.601562 C 747 488.324219 748.199219 487.199219 749.476562 486.375 C 750.75 485.476562 752.175781 484.800781 753.675781 484.425781 C 755.175781 483.976562 756.824219 483.824219 758.324219 483.898438 C 759.824219 483.976562 761.851562 484.050781 762.898438 484.875 C 763.875 485.699219 765.226562 487.726562 764.699219 488.851562 C 763.648438 490.949219 752.023438 494.851562 749.25 492.601562 C 745.648438 489.824219 748.875 473.25 749.550781 467.699219 C 749.925781 464.851562 750.375 462.898438 751.125 461.324219 C 751.648438 460.125 752.101562 459.449219 753.074219 458.550781 C 754.273438 457.273438 756.449219 455.550781 758.476562 454.800781 C 760.5 454.050781 763.273438 453.898438 765.074219 453.976562 C 766.351562 454.050781 767.25 454.425781 768.300781 454.800781 C 769.351562 455.175781 770.25 455.550781 771.226562 456.375 C 772.648438 457.425781 774.601562 459.375 775.648438 461.324219 C 776.625 463.199219 777.226562 467.699219 777.226562 467.699219 " clip-rule="nonzero"/></clipPath><clipPath id="3d9907b7ee"><path d="M 743 455.34375 L 781.222656 455.34375 L 781.222656 684.738281 L 743 684.738281 Z M 743 455.34375 " clip-rule="nonzero"/></clipPath><clipPath id="fd28a10707"><path d="M 769.273438 461.851562 C 775.648438 472.574219 778.574219 479.023438 779.773438 484.273438 C 780.824219 489.148438 780.976562 493.199219 780.601562 498.898438 C 780.074219 507.074219 775.726562 520.273438 774.75 528.675781 C 774.074219 534.75 774.074219 538.273438 774.074219 544.351562 C 774.148438 552.898438 774.824219 564.824219 775.875 575.101562 C 776.925781 585.300781 779.699219 594.449219 780.449219 605.773438 C 781.425781 619.800781 781.648438 640.351562 779.851562 652.949219 C 778.648438 661.648438 775.726562 670.199219 773.851562 674.625 C 772.875 676.726562 772.273438 677.773438 771.148438 679.050781 C 770.101562 680.324219 768.675781 681.523438 767.25 682.425781 C 765.824219 683.25 764.101562 683.925781 762.449219 684.300781 C 760.800781 684.675781 759 684.75 757.273438 684.601562 C 755.625 684.449219 753.898438 683.925781 752.324219 683.25 C 750.824219 682.5 749.324219 681.523438 748.050781 680.324219 C 746.851562 679.199219 745.726562 677.699219 744.976562 676.273438 C 744.148438 674.773438 743.550781 673.050781 743.324219 671.324219 C 743.023438 669.675781 743.023438 667.875 743.324219 666.226562 C 743.550781 664.5 744.148438 662.851562 744.898438 661.351562 C 745.726562 659.851562 746.851562 658.351562 748.050781 657.226562 C 749.25 656.023438 750.75 655.050781 752.324219 654.300781 C 753.824219 653.625 755.550781 653.101562 757.273438 652.949219 C 758.925781 652.726562 760.726562 652.800781 762.449219 653.175781 C 764.101562 653.550781 765.75 654.226562 767.175781 655.125 C 768.675781 655.949219 770.023438 657.148438 771.148438 658.425781 C 772.273438 659.699219 773.175781 661.273438 773.773438 662.851562 C 774.449219 664.425781 774.824219 666.226562 774.898438 667.875 C 774.976562 669.601562 774.824219 671.398438 774.375 672.976562 C 773.925781 674.625 773.175781 676.273438 772.199219 677.699219 C 771.226562 679.125 770.023438 680.398438 768.675781 681.449219 C 767.324219 682.425781 765.75 683.324219 764.101562 683.851562 C 762.523438 684.375 760.726562 684.675781 759 684.675781 C 757.351562 684.675781 755.550781 684.375 753.976562 683.851562 C 752.324219 683.324219 750.75 682.5 749.398438 681.449219 C 748.050781 680.398438 746.773438 679.125 745.800781 677.699219 C 744.898438 676.273438 744.148438 674.699219 743.699219 673.050781 C 743.175781 671.398438 743.101562 669.75 743.101562 667.949219 C 743.101562 665.625 743.324219 663.148438 744 660.375 C 744.976562 656.699219 747.976562 653.023438 749.023438 647.851562 C 750.523438 639.898438 749.398438 625.425781 749.101562 616.949219 C 748.949219 611.023438 748.648438 606.675781 748.050781 601.726562 C 747.449219 596.925781 746.175781 593.25 745.5 587.625 C 744.523438 579.300781 744 564.898438 743.773438 556.351562 C 743.625 550.5 743.773438 546.449219 743.925781 541.574219 C 744.074219 536.851562 743.851562 533.101562 744.601562 527.625 C 745.800781 519.300781 751.574219 505.273438 751.949219 497.023438 C 752.175781 491.550781 751.351562 487.351562 749.925781 483.226562 C 748.648438 479.550781 745.351562 476.550781 744.375 473.476562 C 743.699219 471.148438 743.550781 468.976562 743.925781 466.875 C 744.226562 464.773438 745.199219 462.523438 746.550781 460.800781 C 747.824219 459.074219 750.074219 457.5 751.648438 456.601562 C 752.773438 456 753.601562 455.773438 754.875 455.625 C 756.675781 455.324219 759.75 455.476562 761.476562 455.925781 C 762.75 456.148438 763.5 456.523438 764.550781 457.199219 C 766.050781 458.25 769.273438 461.851562 769.273438 461.851562 " clip-rule="nonzero"/></clipPath><clipPath id="10cc12abcd"><path d="M 233.621094 208.121094 L 603.675781 208.121094 L 603.675781 578 L 233.621094 578 Z M 233.621094 208.121094 " clip-rule="nonzero"/></clipPath><clipPath id="23518bd492"><path d="M 233.625 405.976562 C 238.050781 357 242.023438 346.425781 246.074219 336.074219 C 250.125 325.800781 254.925781 315.75 260.175781 306.300781 C 265.273438 297.148438 271.648438 289.050781 277.050781 280.199219 C 282.523438 271.351562 285.824219 261.601562 292.800781 253.050781 C 300.75 243.226562 312.375 230.25 323.476562 225.449219 C 333.074219 221.398438 345.226562 223.875 354.148438 223.125 C 361.125 222.601562 367.273438 223.425781 372.601562 221.550781 C 377.398438 219.898438 379.574219 215.398438 384.898438 213.375 C 392.699219 210.375 404.699219 209.175781 416.023438 208.875 C 429.75 208.5 448.5 209.023438 461.476562 212.925781 C 472.351562 216.148438 482.550781 223.273438 489.523438 228.074219 C 494.25 231.300781 497.398438 236.023438 500.398438 237.449219 C 502.125 238.273438 503.476562 237.449219 505.050781 238.199219 C 507.148438 239.175781 510 243.449219 511.425781 243.824219 C 511.949219 243.898438 512.699219 243.449219 512.699219 243.449219 C 512.773438 243.449219 515.773438 243.449219 517.273438 243.449219 C 518.773438 243.449219 521.699219 243.449219 521.773438 243.523438 C 521.851562 243.523438 524.699219 244.199219 526.199219 244.574219 C 527.699219 244.949219 530.550781 245.625 530.625 245.699219 C 530.625 245.699219 533.25 247.125 534.601562 247.800781 C 535.949219 248.476562 538.574219 249.898438 538.648438 249.898438 C 538.648438 249.976562 540.898438 251.925781 542.023438 252.898438 C 543.148438 253.949219 545.398438 255.898438 545.398438 255.976562 C 545.476562 255.976562 547.125 258.449219 547.949219 259.726562 C 548.851562 260.925781 550.5 263.398438 550.574219 263.398438 C 550.574219 263.476562 551.625 266.25 552.148438 267.675781 C 552.675781 269.101562 553.726562 271.875 553.726562 271.949219 C 553.800781 271.949219 553.425781 273.976562 554.101562 275.101562 C 555.675781 277.648438 562.800781 279.601562 566.773438 284.023438 C 572.699219 290.550781 578.550781 302.851562 583.050781 313.125 C 587.773438 323.851562 591.226562 335.699219 594.226562 347.25 C 597.226562 358.875 599.625 371.175781 601.050781 382.800781 C 602.476562 393.824219 603.824219 404.324219 602.925781 415.351562 C 601.875 426.898438 598.648438 439.125 594.675781 450.523438 C 590.625 462 585.300781 473.773438 578.851562 483.75 C 572.699219 493.351562 564.523438 503.023438 557.023438 509.398438 C 551.023438 514.425781 541.125 516.976562 538.574219 520.425781 C 537.300781 522.148438 538.425781 523.351562 537.226562 525.375 C 534.300781 530.324219 520.875 544.5 514.125 547.050781 C 510.074219 548.625 504.976562 546.148438 503.023438 546.824219 C 502.125 547.050781 502.273438 547.425781 501.375 548.101562 C 497.175781 550.875 477.375 563.773438 465.300781 568.726562 C 454.425781 573.226562 443.851562 576.601562 432.601562 577.5 C 420.898438 578.476562 408.675781 576.675781 396.300781 574.050781 C 382.574219 571.199219 366.898438 564.375 354 560.023438 C 343.125 556.351562 333.601562 554.925781 323.925781 549.75 C 313.125 544.050781 301.351562 534.898438 292.726562 526.273438 C 285.074219 518.550781 280.425781 510.148438 274.125 501.226562 C 267.148438 491.398438 258.675781 480.601562 252.976562 469.648438 C 247.425781 459.074219 243.449219 447.675781 240.226562 436.800781 C 237.148438 426.449219 233.625 405.976562 233.625 405.976562 M 368.699219 488.175781 C 372.375 489.074219 370.648438 485.324219 370.050781 485.324219 C 369.523438 485.324219 368.699219 488.175781 368.699219 488.175781 " clip-rule="nonzero"/></clipPath><clipPath id="e087c0f7c8"><path d="M 329.054688 476.128906 L 389.226562 476.128906 L 389.226562 537.871094 L 329.054688 537.871094 Z M 329.054688 476.128906 " clip-rule="nonzero"/></clipPath><clipPath id="95b28f3712"><path d="M 389.175781 497.925781 C 389.25 517.273438 387 522.300781 384.074219 526.050781 C 381.074219 529.800781 376.800781 533.175781 372.449219 535.125 C 368.101562 537.074219 362.699219 538.050781 357.976562 537.75 C 353.25 537.449219 348 535.800781 343.949219 533.398438 C 339.824219 530.925781 336 527.023438 333.523438 522.976562 C 331.050781 518.851562 329.398438 513.675781 329.175781 508.875 C 328.875 504.148438 329.851562 498.75 331.800781 494.398438 C 333.75 490.050781 337.125 485.773438 340.875 482.851562 C 344.625 479.925781 349.648438 477.675781 354.300781 476.773438 C 358.949219 475.949219 364.425781 476.25 369 477.675781 C 373.574219 479.101562 381.601562 485.324219 381.601562 485.324219 " clip-rule="nonzero"/></clipPath><clipPath id="44f6117562"><path d="M 13.621094 277.589844 L 118.359375 277.589844 L 118.359375 340.378906 L 13.621094 340.378906 Z M 13.621094 277.589844 " clip-rule="nonzero"/></clipPath><clipPath id="a040fa4145"><path d="M 105.601562 325.425781 C 90.75 331.425781 83.101562 338.851562 75.148438 339.976562 C 66.074219 341.25 53.476562 336.601562 44.476562 333.75 C 36.976562 331.351562 24.75 324.523438 24.449219 325.050781 C 24.300781 325.199219 25.726562 326.175781 25.648438 326.25 C 25.574219 326.398438 22.726562 324.675781 21.449219 323.625 C 20.175781 322.574219 18.976562 321.300781 18 320.023438 C 17.023438 318.675781 16.199219 317.25 15.523438 315.675781 C 14.851562 314.175781 14.398438 312.523438 14.175781 310.949219 C 13.875 309.300781 13.800781 307.574219 13.949219 305.925781 C 14.101562 304.351562 14.476562 302.625 14.925781 301.125 C 15.449219 299.550781 16.199219 297.976562 17.101562 296.625 C 18 295.199219 19.050781 293.925781 20.25 292.726562 C 21.449219 291.601562 22.800781 290.625 24.226562 289.800781 C 25.648438 288.976562 27.226562 288.300781 28.800781 287.851562 C 30.375 287.398438 32.101562 287.101562 33.675781 287.023438 C 35.324219 286.949219 37.050781 287.101562 38.699219 287.476562 C 40.273438 287.773438 43.425781 288.601562 43.351562 289.050781 C 43.273438 289.875 24 291 23.925781 290.324219 C 23.699219 289.199219 65.550781 277.648438 66.375 279.375 C 66.824219 280.273438 57.449219 286.273438 57.300781 286.125 C 57.226562 286.050781 60.375 282.675781 62.25 281.398438 C 64.050781 280.125 66.226562 279.074219 68.398438 278.476562 C 70.574219 277.800781 72.976562 277.5 75.226562 277.648438 C 77.476562 277.726562 79.800781 278.175781 81.898438 279 C 84 279.824219 86.023438 281.023438 87.75 282.449219 C 89.550781 283.875 91.125 285.675781 92.25 287.625 C 93.449219 289.5 94.351562 291.75 94.875 293.925781 C 95.398438 296.101562 95.550781 298.5 95.324219 300.75 C 95.101562 303 94.5 305.324219 93.601562 307.351562 C 92.625 309.449219 91.351562 311.398438 89.773438 313.050781 C 88.273438 314.699219 86.398438 316.199219 84.375 317.25 C 82.425781 318.375 80.175781 319.125 77.925781 319.5 C 75.75 319.949219 73.351562 319.949219 71.101562 319.574219 C 68.925781 319.273438 66.601562 318.523438 64.648438 317.476562 C 62.625 316.5 60.675781 315.074219 59.101562 313.425781 C 57.601562 311.851562 56.175781 309.824219 55.199219 307.800781 C 54.300781 305.773438 53.625 303.449219 53.324219 301.273438 C 53.023438 299.023438 53.175781 296.625 53.625 294.449219 C 54.074219 292.199219 54.898438 289.949219 56.101562 288.074219 C 57.226562 286.125 58.726562 284.25 60.449219 282.75 C 62.101562 281.324219 64.199219 280.050781 66.226562 279.226562 C 68.324219 278.324219 70.648438 277.800781 72.898438 277.648438 C 75.148438 277.5 77.550781 277.726562 79.726562 278.324219 C 81.898438 278.851562 84.074219 279.898438 85.949219 281.101562 C 87.824219 282.375 89.550781 283.949219 90.976562 285.75 C 92.324219 287.550781 93.523438 289.648438 94.273438 291.75 C 94.949219 293.851562 95.398438 296.25 95.398438 298.5 C 95.476562 300.75 95.101562 303.074219 94.425781 305.25 C 93.675781 307.351562 93.300781 309.375 91.273438 311.324219 C 87.148438 315.226562 74.625 320.476562 66.75 322.351562 C 60.074219 323.925781 54 322.5 47.324219 323.101562 C 40.273438 323.773438 30 327.226562 25.648438 326.25 C 23.625 325.800781 22.726562 324.675781 21.449219 323.625 C 20.175781 322.574219 18.976562 321.300781 18 320.023438 C 17.023438 318.675781 16.199219 317.25 15.523438 315.675781 C 14.925781 314.175781 14.398438 312.523438 14.175781 310.949219 C 13.875 309.300781 13.800781 307.574219 13.949219 306 C 14.101562 304.351562 14.476562 302.625 14.925781 301.125 C 15.449219 299.550781 16.199219 297.976562 17.101562 296.625 C 18 295.199219 19.050781 293.925781 20.25 292.726562 C 21.449219 291.601562 22.800781 290.625 24.226562 289.800781 C 25.648438 288.976562 27.226562 288.300781 28.800781 287.851562 C 30.375 287.398438 32.101562 287.101562 33.675781 287.023438 C 35.324219 286.949219 37.050781 287.101562 38.699219 287.476562 C 40.273438 287.773438 42.148438 287.925781 43.351562 289.050781 C 44.773438 290.25 44.550781 292.949219 46.351562 294.898438 C 49.574219 298.273438 57.976562 305.023438 63.898438 304.875 C 70.273438 304.800781 77.175781 295.5 83.25 292.726562 C 88.125 290.550781 92.851562 288.824219 97.050781 288.449219 C 100.351562 288.226562 103.726562 288.898438 106.050781 289.726562 C 107.773438 290.25 108.75 290.773438 110.101562 291.898438 C 112.050781 293.476562 114.75 296.175781 116.101562 298.800781 C 117.449219 301.5 118.199219 304.800781 118.125 307.726562 C 118.125 310.648438 117.226562 313.949219 115.875 316.574219 C 114.449219 319.199219 111.675781 321.824219 109.726562 323.324219 C 108.300781 324.375 105.601562 325.425781 105.601562 325.425781 " clip-rule="nonzero"/></clipPath><clipPath id="38e74f6833"><path d="M 77.449219 281.296875 L 116.496094 281.296875 L 116.496094 319.152344 L 77.449219 319.152344 Z M 77.449219 281.296875 " clip-rule="nonzero"/></clipPath><clipPath id="c46635ab53"><path d="M 96.148438 281.398438 C 105.601562 282.976562 107.398438 283.949219 108.976562 285.226562 C 110.625 286.425781 112.050781 287.925781 113.175781 289.648438 C 114.300781 291.300781 115.199219 293.25 115.726562 295.125 C 116.25 297.074219 116.476562 299.175781 116.398438 301.199219 C 116.324219 303.226562 115.800781 305.25 115.125 307.125 C 114.375 309 113.25 310.875 111.976562 312.375 C 110.625 313.875 109.050781 315.300781 107.324219 316.273438 C 105.601562 317.324219 103.574219 318.148438 101.625 318.523438 C 99.675781 318.976562 97.574219 319.125 95.550781 318.898438 C 93.601562 318.675781 91.5 318.074219 89.699219 317.25 C 87.898438 316.425781 86.101562 315.226562 84.675781 313.875 C 83.175781 312.449219 81.898438 310.800781 81 309 C 80.023438 307.199219 79.351562 305.175781 79.050781 303.226562 C 78.75 301.273438 78.75 299.101562 79.050781 297.148438 C 79.351562 295.125 80.023438 293.101562 81 291.375 C 81.898438 289.574219 83.25 287.925781 84.675781 286.5 C 86.101562 285.148438 87.898438 283.949219 89.699219 283.125 C 91.5 282.226562 93.601562 281.699219 95.550781 281.476562 C 97.574219 281.25 99.675781 281.398438 101.625 281.773438 C 103.648438 282.226562 105.601562 283.050781 107.324219 284.023438 C 109.050781 285.074219 110.625 286.5 111.976562 288 C 113.25 289.5 114.375 291.375 115.125 293.25 C 115.800781 295.050781 116.324219 297.148438 116.398438 299.175781 C 116.476562 301.199219 116.25 303.300781 115.726562 305.25 C 115.199219 307.125 114.300781 309.074219 113.175781 310.726562 C 112.050781 312.375 110.550781 313.949219 108.976562 315.148438 C 107.398438 316.351562 105.523438 317.398438 103.574219 318 C 101.699219 318.675781 99.601562 318.898438 97.574219 318.976562 C 95.625 319.050781 93.75 319.050781 91.648438 318.375 C 89.101562 317.625 85.875 316.125 83.699219 314.25 C 81.523438 312.300781 79.574219 309.074219 78.601562 306.824219 C 77.851562 305.25 77.625 304.199219 77.550781 302.476562 C 77.398438 300 77.550781 296.25 78.601562 293.550781 C 79.648438 290.773438 81.976562 287.851562 83.699219 286.125 C 84.898438 284.925781 85.875 284.25 87.449219 283.574219 C 89.625 282.523438 96.148438 281.398438 96.148438 281.398438 " clip-rule="nonzero"/></clipPath><clipPath id="e94d2bab60"><path d="M 730.1875 126 L 803.1875 126 L 803.1875 461.40625 L 730.1875 461.40625 Z M 730.1875 126 " clip-rule="nonzero"/></clipPath><clipPath id="81686ac23e"><path d="M 730.425781 276 C 730.726562 272.398438 730.875 270.601562 730.875 270.523438 C 730.875 270.523438 731.476562 268.800781 731.773438 267.976562 C 732 267.074219 732.601562 265.351562 732.601562 265.351562 C 732.601562 265.273438 733.574219 263.773438 734.101562 263.023438 C 734.550781 262.273438 735.523438 260.699219 735.523438 260.699219 C 735.523438 260.699219 736.875 259.425781 737.476562 258.824219 C 738.148438 258.148438 739.425781 256.875 739.5 256.875 C 739.5 256.875 741.074219 255.976562 741.824219 255.523438 C 742.648438 255.074219 744.226562 254.175781 744.226562 254.101562 C 744.226562 254.101562 745.5 254.101562 745.726562 253.726562 C 746.023438 253.199219 745.273438 252.074219 745.125 250.726562 C 744.898438 248.324219 745.5 241.875 745.125 240 C 745.050781 239.398438 744.824219 239.398438 744.675781 238.726562 C 744.148438 236.023438 744.074219 225.375 744 218.773438 C 743.851562 212.25 744.824219 205.726562 743.851562 199.351562 C 742.949219 192.898438 739.5 186.824219 738.226562 180.148438 C 737.023438 173.023438 736.949219 163.726562 736.648438 157.875 C 736.5 154.125 736.425781 148.726562 736.425781 148.648438 C 736.425781 148.648438 736.648438 146.851562 736.726562 145.949219 C 736.875 145.050781 737.023438 143.324219 737.023438 143.25 C 737.023438 143.25 737.699219 141.523438 738 140.699219 C 738.300781 139.875 738.976562 138.226562 738.976562 138.148438 C 738.976562 138.148438 739.949219 136.648438 740.476562 135.898438 C 741 135.148438 741.976562 133.648438 742.050781 133.648438 C 742.050781 133.648438 743.398438 132.449219 744.074219 131.851562 C 744.75 131.25 746.023438 130.050781 746.101562 130.050781 C 746.101562 129.976562 747.675781 129.148438 748.5 128.773438 C 749.324219 128.324219 750.824219 127.5 750.898438 127.5 C 750.898438 127.425781 752.625 127.050781 753.523438 126.824219 C 754.425781 126.601562 756.148438 126.148438 756.148438 126.148438 C 756.226562 126.148438 758.023438 126.148438 758.925781 126.148438 C 759.824219 126.148438 761.550781 126.074219 761.625 126.074219 C 761.625 126.148438 763.425781 126.523438 764.25 126.75 C 765.148438 126.976562 766.875 127.351562 766.949219 127.351562 C 766.949219 127.425781 766.949219 127.351562 766.949219 127.425781 C 766.949219 127.425781 768.523438 128.25 769.351562 128.625 C 770.175781 129.074219 771.75 129.898438 771.75 129.898438 C 771.75 129.898438 773.101562 131.101562 773.773438 131.699219 C 774.449219 132.300781 775.800781 133.425781 775.875 133.5 C 775.875 133.5 776.925781 135 777.375 135.75 C 777.898438 136.5 778.949219 137.925781 778.949219 137.925781 C 778.949219 138 779.625 139.648438 779.925781 140.476562 C 780.300781 141.375 780.898438 143.023438 780.898438 143.023438 C 780.898438 143.101562 781.125 144.824219 781.273438 145.726562 C 781.351562 146.625 781.574219 148.351562 781.574219 148.425781 C 781.648438 148.648438 785.476562 164.25 787.199219 171.601562 C 788.773438 178.351562 790.648438 184.425781 791.625 190.875 C 792.601562 197.101562 793.726562 203.773438 793.273438 209.625 C 792.824219 214.949219 789.824219 219.75 789.601562 224.625 C 789.449219 229.273438 790.949219 233.324219 791.925781 238.199219 C 793.050781 243.898438 794.550781 250.425781 796.351562 256.648438 C 798.226562 263.25 802.125 270 802.949219 276.75 C 803.699219 283.425781 801.601562 290.25 801.300781 296.925781 C 801.074219 303.601562 801.300781 310.273438 801.226562 316.875 C 801.226562 323.398438 801.226562 329.625 801.148438 336.226562 C 801.074219 343.050781 801.449219 350.175781 800.851562 357.226562 C 800.25 364.351562 799.125 371.699219 797.324219 378.824219 C 795.523438 386.023438 791.625 393.074219 790.199219 400.273438 C 788.773438 407.101562 789.074219 414.226562 788.398438 420.976562 C 787.800781 427.425781 786.449219 439.949219 786.375 439.949219 C 786.375 439.949219 786.449219 439.949219 786.375 439.949219 C 786.375 440.023438 786.226562 441.675781 786.074219 442.5 C 786 443.398438 785.773438 445.050781 785.773438 445.125 C 785.773438 445.125 785.175781 446.773438 784.875 447.523438 C 784.574219 448.351562 783.976562 449.925781 783.976562 450 C 783.898438 450 782.925781 451.425781 782.476562 452.101562 C 781.949219 452.851562 780.976562 454.199219 780.976562 454.273438 C 780.976562 454.273438 779.699219 455.398438 779.023438 456 C 778.425781 456.523438 777.148438 457.726562 777.074219 457.726562 C 777.074219 457.726562 775.574219 458.550781 774.824219 458.925781 C 774 459.300781 772.5 460.125 772.5 460.125 C 772.425781 460.125 770.773438 460.574219 769.949219 460.726562 C 769.125 460.949219 767.476562 461.398438 767.476562 461.398438 C 767.398438 461.398438 765.675781 461.398438 764.851562 461.398438 C 763.949219 461.398438 762.300781 461.398438 762.226562 461.398438 C 762.226562 461.398438 760.574219 460.949219 759.75 460.726562 C 758.851562 460.574219 757.199219 460.125 757.199219 460.125 C 757.125 460.125 755.625 459.300781 754.875 458.925781 C 754.125 458.550781 752.625 457.726562 752.550781 457.726562 C 752.550781 457.726562 751.273438 456.523438 750.601562 456 C 750 455.398438 748.726562 454.273438 748.726562 454.273438 C 748.648438 454.199219 747.675781 452.851562 747.226562 452.101562 C 746.699219 451.425781 745.726562 450 745.726562 450 C 745.726562 449.925781 745.125 448.351562 744.824219 447.523438 C 744.523438 446.773438 743.925781 445.125 743.925781 445.125 C 743.851562 445.050781 743.699219 443.398438 743.550781 442.5 C 743.476562 441.675781 743.25 440.023438 743.25 439.949219 C 743.25 439.949219 743.324219 433.199219 743.324219 429 C 743.398438 423.375 743.476562 416.023438 743.550781 409.351562 C 743.550781 402.449219 743.625 395.175781 743.699219 388.125 C 743.773438 381.148438 743.851562 371.925781 743.851562 367.273438 C 743.851562 364.949219 744 364.273438 743.851562 362.023438 C 743.550781 357.898438 741.976562 350.699219 741.523438 344.625 C 741 338.023438 741.148438 324.074219 741.148438 324 C 741.148438 323.925781 741.300781 322.351562 741.449219 321.523438 C 741.523438 320.625 741.675781 319.050781 741.75 318.976562 C 741.75 318.976562 742.273438 317.398438 742.574219 316.648438 C 742.875 315.898438 743.476562 314.324219 743.476562 314.324219 C 743.476562 314.25 744.523438 313.574219 744.523438 312.824219 C 744.449219 310.574219 736.5 304.351562 734.25 299.101562 C 731.773438 293.550781 731.101562 284.25 730.648438 280.199219 C 730.425781 278.324219 730.425781 276 730.425781 276 " clip-rule="nonzero"/></clipPath></defs><rect x="-81" width="972" fill="#ffffff" y="-80.999999" height="971.999992" fill-opacity="1"/><rect x="-81" width="972" fill="#ffffff" y="-80.999999" height="971.999992" fill-opacity="1"/><path fill="#c89dd8" d="M 759.875 702.742188 C 743.070312 702.742188 729.402344 689.070312 729.402344 672.269531 L 729.402344 130.15625 C 729.402344 122.238281 735.769531 107.253906 759.875 107.253906 C 798.117188 107.253906 810 243.046875 810 292.507812 C 810 369.238281 793.027344 439.691406 790.347656 450.339844 L 790.347656 672.265625 C 790.347656 689.070312 776.679688 702.742188 759.875 702.742188 Z M 749.691406 459.214844 L 749.691406 672.269531 C 749.691406 677.882812 754.257812 682.453125 759.875 682.453125 C 765.492188 682.453125 770.054688 677.886719 770.054688 672.269531 L 770.054688 459.214844 Z M 749.691406 438.921875 L 772.207031 438.921875 C 777.023438 417.988281 789.710938 356.722656 789.710938 292.511719 C 789.710938 207.796875 769.800781 134.824219 759.085938 127.558594 C 752.832031 127.691406 750.085938 129.425781 749.699219 130.6875 L 749.699219 438.921875 Z M 67.492188 702.742188 C 59.90625 702.742188 52.601562 699.761719 47.453125 694.570312 C 42.726562 689.792969 40.15625 683.566406 40.21875 677.046875 L 43.488281 345.15625 C 18.597656 335.550781 0.578125 311.527344 0.00390625 283.464844 C -0.00390625 283.210938 0 282.957031 0.0117188 282.699219 L 6.972656 129.695312 C 7.226562 124.101562 12.082031 119.871094 17.5625 120.019531 C 23.164062 120.277344 27.492188 125.019531 27.238281 130.617188 L 20.761719 273.015625 L 38.457031 273.015625 L 41.710938 129.925781 C 41.839844 124.324219 46.613281 119.863281 52.085938 120.011719 C 57.6875 120.144531 62.125 124.785156 61.996094 130.386719 L 58.761719 273.019531 L 76.234375 273.019531 L 72.992188 130.390625 C 72.867188 124.789062 77.300781 120.148438 82.902344 120.015625 C 88.414062 119.847656 93.148438 124.328125 93.273438 129.929688 L 96.527344 273.019531 L 114.226562 273.019531 L 107.753906 130.621094 C 107.496094 125.023438 111.828125 120.28125 117.429688 120.023438 C 122.976562 119.8125 127.773438 124.101562 128.019531 129.699219 L 134.976562 282.699219 C 134.988281 282.957031 134.992188 283.210938 134.984375 283.464844 C 134.410156 311.523438 116.390625 335.550781 91.496094 345.15625 L 94.773438 677.046875 C 94.835938 683.566406 92.265625 689.792969 87.535156 694.570312 C 82.386719 699.761719 75.082031 702.742188 67.492188 702.742188 Z M 63.734375 349.625 L 60.507812 677.242188 C 60.496094 678.609375 61.246094 679.65625 61.875 680.289062 C 64.59375 683.035156 70.390625 683.03125 73.117188 680.289062 C 73.746094 679.652344 74.492188 678.605469 74.480469 677.242188 L 71.25 349.625 Z M 21.640625 293.308594 C 26.738281 313.914062 45.496094 329.335938 67.492188 329.335938 C 89.496094 329.335938 108.253906 313.914062 113.34375 293.308594 L 86.613281 293.308594 C 86.613281 293.308594 86.601562 293.308594 86.59375 293.308594 L 48.390625 293.308594 C 48.386719 293.308594 48.386719 293.308594 48.382812 293.308594 C 48.382812 293.308594 48.378906 293.308594 48.375 293.308594 Z M 417.089844 662.511719 C 268.191406 662.511719 147.050781 541.367188 147.050781 392.472656 C 147.050781 243.574219 268.191406 122.429688 417.089844 122.429688 C 565.992188 122.429688 687.132812 243.574219 687.132812 392.472656 C 687.132812 541.367188 565.996094 662.511719 417.089844 662.511719 Z M 417.089844 142.71875 C 279.375 142.71875 167.34375 254.757812 167.34375 392.464844 C 167.34375 530.175781 279.375 642.214844 417.089844 642.214844 C 554.804688 642.214844 666.84375 530.175781 666.84375 392.464844 C 666.84375 254.757812 554.804688 142.71875 417.089844 142.71875 Z M 417.089844 589.046875 C 308.695312 589.046875 220.515625 500.863281 220.515625 392.472656 C 220.515625 284.082031 308.695312 195.894531 417.089844 195.894531 C 525.484375 195.894531 613.667969 284.082031 613.667969 392.472656 C 613.667969 500.863281 525.484375 589.046875 417.089844 589.046875 Z M 417.089844 216.179688 C 319.882812 216.179688 240.804688 295.265625 240.804688 392.464844 C 240.804688 489.667969 319.882812 568.753906 417.089844 568.753906 C 514.296875 568.753906 593.375 489.667969 593.375 392.464844 C 593.375 295.265625 514.296875 216.179688 417.089844 216.179688 Z M 417.089844 216.179688 " fill-opacity="1" fill-rule="nonzero"/><g clip-path="url(#2fe3efb010)"><g clip-path="url(#08be06b260)"><path fill="#c89dd8" d="M 44.175781 343.050781 L 91.050781 343.050781 L 91.050781 589.691406 L 44.175781 589.691406 Z M 44.175781 343.050781 " fill-opacity="1" fill-rule="nonzero"/></g></g><g clip-path="url(#66ded45a83)"><g clip-path="url(#b8e8e04c19)"><path fill="#c89dd8" d="M 45.976562 504.601562 L 89.550781 504.601562 L 89.550781 689.964844 L 45.976562 689.964844 Z M 45.976562 504.601562 " fill-opacity="1" fill-rule="nonzero"/></g></g><g clip-path="url(#a47f66a25f)"><g clip-path="url(#1adff7fb0e)"><path fill="#c89dd8" d="M 740.101562 450.976562 L 780.601562 450.976562 L 780.601562 515.679688 L 740.101562 515.679688 Z M 740.101562 450.976562 " fill-opacity="1" fill-rule="nonzero"/></g></g><g clip-path="url(#3d9907b7ee)"><g clip-path="url(#fd28a10707)"><path fill="#c89dd8" d="M 740.101562 452.625 L 783.601562 452.625 L 783.601562 687.796875 L 740.101562 687.796875 Z M 740.101562 452.625 " fill-opacity="1" fill-rule="nonzero"/></g></g><g clip-path="url(#10cc12abcd)"><g clip-path="url(#23518bd492)"><path fill="#c89dd8" d="M 230.625 205.875 L 605.925781 205.875 L 605.925781 580.425781 L 230.625 580.425781 Z M 230.625 205.875 " fill-opacity="1" fill-rule="nonzero"/></g></g><g clip-path="url(#e087c0f7c8)"><g clip-path="url(#95b28f3712)"><path fill="#c89dd8" d="M 326.175781 473.773438 L 393.148438 473.773438 L 393.148438 540.75 L 326.175781 540.75 Z M 326.175781 473.773438 " fill-opacity="1" fill-rule="nonzero"/></g></g><g clip-path="url(#44f6117562)"><g clip-path="url(#a040fa4145)"><path fill="#c89dd8" d="M 10.949219 274.648438 L 121.296875 274.648438 L 121.296875 343.050781 L 10.949219 343.050781 Z M 10.949219 274.648438 " fill-opacity="1" fill-rule="nonzero"/></g></g><g clip-path="url(#38e74f6833)"><g clip-path="url(#c46635ab53)"><path fill="#c89dd8" d="M 74.550781 278.398438 L 119.394531 278.398438 L 119.394531 322.050781 L 74.550781 322.050781 Z M 74.550781 278.398438 " fill-opacity="1" fill-rule="nonzero"/></g></g><g clip-path="url(#e94d2bab60)"><g clip-path="url(#81686ac23e)"><path fill="#c89dd8" d="M 727.425781 123.074219 L 805.949219 123.074219 L 805.949219 464.476562 L 727.425781 464.476562 Z M 727.425781 123.074219 " fill-opacity="1" fill-rule="nonzero"/></g></g></svg>